<svg width="512" height="512" viewBox="0 0 512 512" xmlns="http://www.w3.org/2000/svg">
  <!-- Background Circle -->
  <circle cx="256" cy="256" r="248" fill="#3B82F6" opacity="0.1"/>

  <!-- Main Icon Container -->
  <g transform="translate(106, 106)">
    <!-- Document Base -->
    <rect x="0" y="40" width="300" height="220" rx="24" fill="#3B82F6"/>

    <!-- Document Corner Fold -->
    <path d="M300 40 L300 100 L240 40 Z" fill="#60A5FA" opacity="0.8"/>

    <!-- Document Content Lines -->
    <rect x="30" y="80" width="240" height="12" rx="6" fill="white" opacity="0.9"/>
    <rect x="30" y="110" width="210" height="12" rx="6" fill="white" opacity="0.8"/>
    <rect x="30" y="140" width="220" height="12" rx="6" fill="white" opacity="0.8"/>
    <rect x="30" y="170" width="180" height="12" rx="6" fill="white" opacity="0.8"/>
    <rect x="30" y="200" width="200" height="12" rx="6" fill="white" opacity="0.8"/>
    <rect x="30" y="230" width="160" height="12" rx="6" fill="white" opacity="0.8"/>

    <!-- Flow Arrow (representing Flow in MindFlow) -->
    <g transform="translate(180, 90)">
      <path d="M0 20 Q 40 20 40 40 T 80 60" stroke="#FCD34D" stroke-width="8" fill="none" stroke-linecap="round" opacity="0.9"/>
      <polygon points="85,60 75,55 75,65" fill="#FCD34D"/>
    </g>

    <!-- Markdown Symbol (#) stylized -->
    <g transform="translate(220, 60)" opacity="0.3">
      <rect x="0" y="0" width="12" height="60" rx="6" fill="white"/>
      <rect x="20" y="0" width="12" height="60" rx="6" fill="white"/>
      <rect x="40" y="0" width="12" height="60" rx="6" fill="white"/>
    </g>
  </g>

  <!-- Outer Glow Effect -->
  <circle cx="256" cy="256" r="248" fill="none" stroke="#3B82F6" stroke-width="4" opacity="0.2"/>
</svg>
